<svg xmlns="http://www.w3.org/2000/svg" xmlns:xlink="http://www.w3.org/1999/xlink" version="1.1" id="Layer_1" x="0px" y="0px" width="100%" viewBox="0 0 1000 1080" enable-background="new 0 0 1000 1080" xml:space="preserve">
<path fill="none" opacity="1.000000" stroke="#000000" stroke-linecap="round" stroke-linejoin="round" stroke-width="7.000000" d=" M445.500000,984.500000   C446.771484,981.628601 447.056732,978.638245 447.043243,975.499817   C446.957947,955.666870 447.427765,935.821106 446.862976,916.003906   C446.420990,900.494751 446.859955,884.995544 446.468445,869.500793   C445.415680,827.835693 446.323181,786.166016 445.995972,744.500061   C445.853302,726.333130 445.878754,708.161804 445.458099,690.000977   C444.419617,645.168396 445.323578,600.332703 444.993347,555.500061   C444.778534,526.333130 444.294067,497.166321 444.340027,468.000153   C444.361816,454.162201 443.860504,440.320648 444.150513,426.503174   C444.423431,413.498779 444.350433,400.499634 444.464874,387.499695   C444.610107,371.000977 444.088287,354.486938 444.610931,338.003510   C445.181915,319.996307 444.417328,301.987732 445.081146,284.002991   C445.819702,263.994568 445.307861,243.886093 448.121429,224.017197   C449.777374,212.323273 453.507233,201.033096 457.781799,190.012329   C466.860840,166.604553 480.099060,145.581451 494.972839,125.479904   C510.784912,104.110298 529.225830,85.145920 548.576965,67.082451   C562.798889,53.806873 577.992676,41.618690 593.999573,30.500984   C595.833008,32.688969 596.063660,35.257736 596.026672,38.000359   C595.722900,60.508457 596.976624,82.992432 597.200073,105.498016   C597.367065,122.324623 597.549561,139.175446 598.123352,155.995789   C598.731812,173.832443 598.512878,191.678375 599.147278,209.494751   C599.776611,227.167114 599.503479,244.843887 600.120239,262.495789   C600.853943,283.499176 600.535950,304.507660 601.132080,325.496246   C601.667114,344.332733 601.661926,363.168335 602.082214,381.998169   C602.699646,409.664673 602.523254,437.342224 603.165588,464.996155   C603.928345,497.834351 603.566406,530.669922 604.127930,563.497803   C604.433044,581.335388 603.935974,599.179565 604.593323,616.996582   C605.257690,635.003662 604.987793,653.001831 604.934937,670.999817   C604.863464,695.333862 604.638672,719.676270 603.876770,743.996155   C603.469299,757.000671 603.332703,770.069336 601.482849,782.997559   C599.268250,798.474670 592.577026,812.373474 585.407959,825.951416   C575.948792,843.866760 564.261719,860.414062 551.947327,876.459595   C537.684875,895.043152 522.361755,912.736328 506.601990,930.092590   C489.942871,948.439392 472.466553,965.954895 455.019714,983.519592   C452.754395,985.800232 450.477966,987.789246 447.000000,987.500000  "/>
<path fill="none" opacity="1.000000" stroke="#000000" stroke-linecap="round" stroke-linejoin="round" stroke-width="3.000000" d=" M561.500000,195.000000   C560.494751,189.023300 561.079163,182.999817 561.028748,176.999756   C560.930603,165.333908 561.032349,153.666534 560.984070,142.000061   C560.964844,137.353653 559.529968,133.386917 556.070923,129.929062   C551.765076,125.624725 543.108826,126.080383 539.417908,131.948380   C535.356506,138.405594 535.244141,145.426010 535.561707,152.497223   C536.175964,166.173386 536.108704,179.825714 535.627808,193.504486   C535.477173,197.789459 533.957520,202.460022 537.000000,206.500000  "/>
<path fill="none" opacity="1.000000" stroke="#000000" stroke-linecap="round" stroke-linejoin="round" stroke-width="7.000000" d=" M593.500000,30.500000   C592.865601,28.753201 591.527161,27.483555 589.978271,26.799166   C579.019104,21.956696 568.031860,17.173681 556.976318,12.556767   C554.398132,11.480106 552.007812,11.994267 549.432495,13.909174   C530.499878,27.986784 512.657715,43.312355 496.021576,60.021488   C479.199799,76.917023 463.676300,94.926254 449.983337,114.488342   C436.380341,133.921860 424.876984,154.476135 415.978485,176.491302   C408.365051,195.327148 403.034088,214.732193 401.304565,235.004654   C400.411011,245.478195 399.915833,255.993881 399.532104,266.501160   C398.473419,295.489746 398.370087,324.498749 397.829987,353.496826   C397.038330,396.000336 397.072998,438.498322 397.029419,481.000031   C397.013519,496.499847 397.080505,512.007751 397.553680,527.498352   C398.480225,557.832092 397.115112,588.188721 398.175659,618.493835   C399.202423,647.832764 398.516083,677.171448 399.419861,706.502441   C400.148712,730.156982 400.211029,753.832825 400.486420,777.500183   C400.719147,797.499390 400.460510,817.512024 401.104797,837.496643   C401.749634,857.498901 401.977600,877.493530 402.049744,897.499817   C402.077393,905.167603 402.739166,912.831299 402.953583,920.501282   C403.013824,922.657288 403.882477,924.310425 404.989258,926.007019   C416.506744,943.662292 428.061493,961.294189 439.369843,979.082764   C440.174255,980.348145 440.961761,981.833923 442.050262,982.404053   C447.317505,985.162415 447.534943,989.549377 446.500000,994.500000  "/>
<path fill="none" opacity="1.000000" stroke="#000000" stroke-linecap="round" stroke-linejoin="round" stroke-width="5.000000" d=" M576.500000,86.500000   C575.449768,90.525818 572.122986,92.234566 569.089355,94.613907   C551.575317,108.350632 535.622131,123.836334 521.601807,141.082779   C503.833008,162.940216 489.241425,186.837936 478.445068,212.977310   C475.131165,221.000641 472.501007,229.251892 470.194946,237.554153   C468.936646,242.084259 469.591309,247.165558 469.519623,252.000290   C469.435669,257.665710 468.692078,263.478363 469.677399,268.968170   C471.432678,278.748047 468.728668,288.329071 469.458282,298.003143   C469.630676,300.289093 469.405365,302.585938 471.000000,304.500000  "/>
<path fill="none" opacity="1.000000" stroke="#000000" stroke-linecap="round" stroke-linejoin="round" stroke-width="3.000000" d=" M506.000000,830.500000   C507.319183,831.780945 506.994385,833.434143 506.995178,835.000000   C507.003082,851.000000 507.034393,867.000122 506.985809,882.999939   C506.960724,891.264221 502.121033,897.101074 495.503326,897.549072   C489.427002,897.960388 483.141357,892.948975 483.034088,884.499573   C482.894501,873.501343 482.989136,862.500000 483.010315,851.500000   C483.013977,849.591980 483.076965,847.698120 482.000000,846.000000  "/>
<path fill="none" opacity="1.000000" stroke="#000000" stroke-linecap="round" stroke-linejoin="round" stroke-width="6.000000" d=" M576.000000,667.000000   C554.780029,661.882446 533.179810,660.718933 511.505157,661.623596   C497.863770,662.192993 484.188690,663.398560 471.000000,667.500000  "/>
<path fill="none" opacity="1.000000" stroke="#000000" stroke-linecap="round" stroke-linejoin="round" stroke-width="6.000000" d=" M575.000000,391.500000   C568.823547,392.531372 563.164124,395.266876 557.039368,396.671631   C539.647888,400.660522 522.144531,401.084991 504.500946,399.984711   C492.884735,399.260284 481.912750,395.729919 471.000000,392.000000  "/>
<path fill="none" opacity="1.000000" stroke="#000000" stroke-linecap="round" stroke-linejoin="round" stroke-width="6.000000" d=" M574.000000,92.500000   C575.320740,95.363213 575.504578,98.411751 575.503845,101.500000   C575.497314,130.000000 575.500000,158.500000 575.500000,187.000000   C575.500000,202.833328 575.500000,218.666672 575.500000,234.500000   C575.500000,256.333344 575.188110,278.173492 575.665955,299.996368   C575.837524,307.830231 575.680725,315.666565 575.912476,323.502594   C576.346069,338.160675 576.103638,352.831970 576.366028,367.502411   C576.839722,393.993927 576.500000,420.500000 576.500000,447.000000   C576.500000,461.833344 576.500000,476.666656 576.500000,491.500000   C576.500000,504.166656 576.500000,516.833313 576.500000,529.500000   C576.500000,545.000000 576.034851,560.519348 576.677612,575.992615   C577.052246,585.011230 576.612793,593.997620 576.880859,603.003540   C577.440979,621.825134 577.381897,640.666443 577.484253,659.500061   C577.563049,673.999634 577.500000,688.500000 577.500000,703.000000   C577.500000,708.166687 577.524353,713.333435 577.494019,718.499939   C577.452942,725.497314 575.918152,726.903320 569.023560,728.595947   C563.810364,729.875854 559.287903,733.053223 554.061401,734.695435   C547.445801,736.774109 540.839905,738.594055 533.992859,739.442322   C530.648010,739.856750 529.018188,741.875122 527.469849,744.482117   C522.486633,752.872620 517.614380,761.274597 511.643585,769.109436   C501.983826,781.784790 489.890656,791.308289 476.512939,799.521057   C475.415070,800.195007 474.499969,801.166626 473.499969,801.999939  "/>
<path fill="none" opacity="1.000000" stroke="#000000" stroke-linecap="round" stroke-linejoin="round" stroke-width="3.000000" d=" M523.000000,214.500000   C520.868774,210.649826 522.365784,206.496613 522.049927,202.496063   C521.801392,199.349014 521.818848,196.153976 522.039734,193.002777   C522.433594,187.383820 518.655334,182.580154 512.987976,181.044250   C509.020660,179.969086 503.630249,183.816208 501.522552,189.009155   C500.620880,191.230576 499.987061,193.545593 499.991180,196.000015   C500.010864,207.666656 499.999542,219.333328 500.000641,231.000000   C500.000763,232.260529 499.792114,233.583206 501.000000,234.500000  "/>
<path fill="none" opacity="1.000000" stroke="#000000" stroke-linecap="round" stroke-linejoin="round" stroke-width="5.000000" d=" M573.000000,791.500000   C569.438354,801.512573 564.882141,811.103271 559.921326,820.458252   C554.525818,830.632751 548.039307,840.211487 542.195251,850.115234   C524.979187,879.290527 503.115448,904.515198 479.009583,928.009827   C477.029877,929.939392 475.155151,931.943176 472.505371,933.013306   C469.169769,934.360229 469.113434,937.964539 467.500000,940.500000  "/>
<path fill="none" opacity="1.000000" stroke="#000000" stroke-linecap="round" stroke-linejoin="round" stroke-width="6.000000" d=" M574.000000,211.500000   C563.592712,212.815933 554.087524,216.999863 545.693298,222.780716   C541.389587,225.744553 536.577332,227.650208 532.395447,230.863983   C520.686279,239.862427 510.442474,250.175095 500.902130,261.416931   C490.771027,273.354950 482.019073,286.026794 476.037079,300.515320   C474.802246,303.506104 470.638733,304.349945 470.930359,308.504883   C471.421112,315.496643 467.946930,322.328613 470.279968,329.570892   C470.852081,331.346832 469.474487,334.097687 469.480286,336.500061   C469.518494,352.333313 469.500000,368.166656 469.500000,384.000000   C469.500000,404.666656 469.212830,425.338531 469.585876,445.998444   C469.916962,464.333954 469.293518,482.662079 469.722900,501.006500   C469.940002,510.281219 469.761932,519.669189 469.609833,529.001770   C469.262268,550.329468 469.142212,571.676086 469.704041,592.994629   C469.887939,599.974182 469.442993,606.985535 470.014709,614.039307   C470.435822,619.234802 469.455505,625.021118 469.602295,630.497253   C469.932892,642.830566 470.044586,655.219177 470.036987,667.499695   C470.028015,681.962952 469.455933,696.513916 469.732361,710.995544   C469.865448,717.966675 470.194214,725.168762 469.995453,731.985291   C469.674805,742.983521 469.788574,754.002563 469.606842,765.001770   C469.496948,771.651978 469.194641,778.313110 470.149353,785.049683   C470.560608,787.951416 469.317200,791.690186 469.591217,794.992432   C470.063690,800.686462 469.902435,806.319092 469.569489,812.004089   C469.248474,817.485291 468.972229,823.064087 469.630219,828.484192   C470.502014,835.665405 468.352936,842.851746 470.270905,850.060974   C470.704651,851.691406 469.491089,854.272949 469.492279,856.500000   C469.504852,879.833313 469.502258,903.166687 469.496582,926.500000   C469.495972,928.946045 469.230072,931.438782 471.000000,933.500000  "/>
<path fill="none" opacity="1.000000" stroke="#000000" stroke-linecap="round" stroke-linejoin="round" stroke-width="4.000000" d=" M531.500000,319.500000   C532.070557,329.000000 530.265259,338.473450 531.366150,348.015442   C531.716736,351.054626 532.876038,352.841431 535.501648,352.876801   C538.695190,352.919861 539.539734,350.399841 539.518127,347.499878   C539.463440,340.166931 539.467529,332.833099 539.522888,325.500183   C539.536743,323.665680 539.833313,321.833344 540.000000,320.000000  "/>
<path fill="none" opacity="1.000000" stroke="#000000" stroke-linecap="round" stroke-linejoin="round" stroke-width="3.000000" d=" M510.500000,319.500000   C511.552856,328.984467 510.726044,338.502197 511.014618,347.999542   C511.102173,350.881348 509.373688,352.689453 506.989960,352.857147   C504.117584,353.059235 502.944550,350.875244 502.975952,347.999725   C503.050598,341.167206 503.039337,334.332977 502.977051,327.500214   C502.957306,325.332214 502.666687,323.166656 502.500000,321.000000  "/>
<path fill="none" opacity="1.000000" stroke="#000000" stroke-linecap="round" stroke-linejoin="round" stroke-width="5.000000" d=" M471.000000,520.500000   C482.764069,517.122314 494.889221,516.200806 506.983124,514.848999   C512.708252,514.209167 518.330200,514.536743 524.000061,514.507202   C530.128357,514.475220 535.378540,509.730011 535.990173,503.499023   C536.891113,494.319336 532.786377,489.787354 525.471924,487.593719   C519.316895,485.747833 511.888947,490.704559 509.491882,497.497131   C508.156250,501.281799 509.310974,504.807312 511.126251,507.926514   C512.098450,509.597046 513.526978,511.017151 514.000000,513.000000  "/>


<path fill="none" opacity="1.000000" stroke="#000000" stroke-linecap="round" stroke-linejoin="round" stroke-width="3.000000" d=" M544.000000,558.500000   C547.102356,559.888184 550.308289,558.150085 553.518188,558.924500   C558.402283,560.102905 562.091797,563.618774 562.471313,568.502258   C562.825073,573.054565 561.107666,577.309692 556.483154,579.463806   C554.066345,580.589539 551.630188,580.106323 549.507324,578.490356   C547.376831,576.868591 545.742371,574.560120 546.171570,572.029114   C546.498291,570.102051 546.827942,567.164246 550.000427,567.009338   C553.113342,566.857361 554.953369,568.200012 555.000000,571.500000  "/>

<path fill="none" opacity="1.000000" stroke="#000000" stroke-linecap="round" stroke-linejoin="round" stroke-width="3.000000" d=" M544.000000,488.500000   C546.402100,486.865051 549.002686,488.360901 551.504517,488.034790   C556.215393,487.420746 560.252075,485.629730 561.912781,480.968933   C563.370728,476.877075 562.436646,472.963837 559.546387,469.461731   C557.298401,466.737823 554.237732,466.357361 551.554993,467.179413   C548.934937,467.982300 546.747009,469.899017 546.361877,473.485168   C545.934082,477.469177 548.486572,478.534943 550.836853,480.240601   C553.779602,479.213623 555.077942,477.215302 555.500000,474.500000  "/>

<path fill="none" opacity="1.000000" stroke="#000000" stroke-linecap="round" stroke-linejoin="round" stroke-width="3.000000" d=" M488.000000,474.500000   C488.847687,477.077881 489.265808,480.454041 492.982391,479.885010   C495.876923,479.441803 497.147552,477.049469 497.022552,473.999084   C496.871063,470.303619 494.497833,467.490601 491.001343,466.990509   C486.706390,466.376251 483.830963,468.627838 482.085419,472.043640   C480.274841,475.586700 480.029663,479.618591 482.571014,482.945770   C485.088562,486.241730 488.508331,488.294678 493.003021,488.057373   C494.640503,487.970917 496.422546,487.441315 498.000000,488.500000  "/>

<path fill="none" opacity="1.000000" stroke="#000000" stroke-linecap="round" stroke-linejoin="round" stroke-width="3.000000" d=" M498.000000,558.000000   C496.392975,558.763123 494.866882,558.839722 492.985229,558.637146   C487.672577,558.065247 482.205872,562.173096 480.999969,567.000000   C479.921722,571.315979 482.466400,577.414307 486.526978,579.446045   C489.056000,580.711426 491.733765,580.092041 493.979126,578.471069   C496.670746,576.528015 497.699097,573.635681 496.893158,570.527710   C496.461304,568.862366 495.151794,567.204529 492.999298,567.007751   C490.438477,566.773743 489.014038,568.065674 488.500000,570.500000  "/>

<path fill="none" opacity="1.000000" stroke="#000000" stroke-linecap="round" stroke-linejoin="round" stroke-width="3.000000" d=" M575.500000,405.500000   C566.383606,404.022980 563.357117,405.483459 559.046753,414.023621   C557.280151,417.523895 555.873779,421.177338 553.007446,424.007538   C548.362122,428.594360 543.568359,428.760620 539.061279,423.942657   C536.553467,421.261810 534.610962,418.038422 532.511047,414.992401   C527.450500,407.651611 518.025085,404.712524 510.484833,413.486969   C507.409607,417.065552 504.275208,420.606415 500.973572,423.974091   C496.446533,428.591644 490.525238,428.728760 486.500153,423.499878   C484.832733,421.333801 483.137115,419.188629 481.506500,416.995178   C478.611053,413.100220 475.464142,409.654175 470.000000,410.000000  "/>
<path fill="none" opacity="1.000000" stroke="#000000" stroke-linecap="round" stroke-linejoin="round" stroke-width="4.000000" d=" M559.500000,325.000000   C557.517700,327.993103 558.707153,331.333099 558.554810,334.502625   C558.338989,338.992249 558.528625,343.500244 558.489441,347.999908   C558.465088,350.798523 559.649841,352.900543 562.500000,352.900543   C565.350159,352.900543 566.532104,350.798492 566.510742,347.999908   C566.472656,343.000214 566.474854,337.999817 566.513794,333.000122   C566.527100,331.286163 566.039612,329.441254 567.500000,328.000000  "/>
<path fill="none" opacity="1.000000" stroke="#000000" stroke-linecap="round" stroke-linejoin="round" stroke-width="3.000000" d=" M484.500000,325.000000   C485.565674,332.814209 484.721832,340.669281 485.009003,348.499664   C485.112732,351.328796 483.149261,352.225281 481.099823,353.186157   C477.425018,351.947601 476.994232,349.328735 476.905640,346.002502   C476.754700,340.336121 478.090393,334.563324 476.000000,329.000000  "/>
<path fill="none" opacity="1.000000" stroke="#000000" stroke-linecap="round" stroke-linejoin="round" stroke-width="5.000000" d=" M471.000000,600.000000   C480.249268,595.456238 489.698944,591.530396 499.997437,589.983032   C512.107849,588.163452 524.191040,586.741455 536.506287,587.934937   C550.069519,589.249268 563.196167,591.951721 575.500000,598.000000  "/>
<path fill="none" opacity="1.000000" stroke="#000000" stroke-linecap="round" stroke-linejoin="round" stroke-width="5.000000" d=" M575.000000,463.500000   C566.616455,462.918396 558.446167,460.851166 550.008972,460.348938   C540.167603,459.763123 530.390930,459.174805 520.498352,459.235321   C511.780029,459.288635 503.160248,459.755035 494.494568,460.430176   C486.509888,461.052246 478.836456,463.184998 471.000000,464.500000  "/>
<path fill="none" opacity="1.000000" stroke="#000000" stroke-linecap="round" stroke-linejoin="round" stroke-width="3.000000" d=" M511.500000,725.500000   C511.500000,719.000000 511.443298,712.499268 511.523895,706.000305   C511.564301,702.740540 510.846405,699.968750 507.002136,700.076660   C503.347076,700.179199 502.920685,702.957825 502.969360,706.000488   C503.070648,712.332153 503.000000,718.666687 503.000000,725.000000  "/>
<path fill="none" opacity="1.000000" stroke="#000000" stroke-linecap="round" stroke-linejoin="round" stroke-width="5.000000" d=" M574.000000,192.500000   C562.806396,194.433395 552.393982,198.715134 542.548218,204.088333   C522.450623,215.056335 505.788574,230.177139 491.482361,247.985840   C485.335815,255.637268 480.049469,263.824982 475.521637,272.511261   C474.545746,274.383423 473.361816,275.969788 471.500000,277.000000  "/>
<path fill="none" opacity="1.000000" stroke="#000000" stroke-linecap="round" stroke-linejoin="round" stroke-width="5.000000" d=" M575.500000,612.000000   C568.130432,609.108765 560.958435,605.879944 553.020447,604.390869   C528.896362,599.865601 505.224518,600.727173 482.015717,609.043884   C478.237061,610.398010 474.666656,612.333313 471.000000,614.000000  "/>
<path fill="none" opacity="1.000000" stroke="#000000" stroke-linecap="round" stroke-linejoin="round" stroke-width="3.000000" d=" M488.500000,739.000000   C488.257935,742.097595 485.881744,741.220459 484.006683,741.539307   C479.859680,742.244568 476.451233,745.540710 476.000000,749.000000   C475.377380,753.773560 477.123810,757.441162 481.000031,759.499939   C484.756500,761.495239 489.524475,760.458740 492.500000,757.000000   C495.689240,753.292847 495.519714,749.731079 492.592224,745.437134   C491.571716,743.940186 489.878265,743.455078 489.000000,742.000000  "/>
<path fill="none" opacity="1.000000" stroke="#000000" stroke-linecap="round" stroke-linejoin="round" stroke-width="5.000000" d=" M574.000000,261.500000   C564.439148,263.225189 556.852478,268.644196 550.070374,275.074249   C543.038940,281.740662 537.403748,289.474060 534.290466,298.931030   C533.797913,300.427307 534.314636,302.271545 533.000000,303.500000  "/>
<path fill="none" opacity="1.000000" stroke="#000000" stroke-linecap="round" stroke-linejoin="round" stroke-width="6.000000" d=" M575.000000,451.500000   C556.138123,448.258545 537.153198,446.086853 518.002075,446.581390   C502.666626,446.977417 487.326111,447.912231 472.494507,452.482208   C472.037872,452.622894 471.500000,452.500000 471.000000,452.500000  "/>
<path fill="none" opacity="1.000000" stroke="#000000" stroke-linecap="round" stroke-linejoin="round" stroke-width="3.000000" d=" M540.500000,723.500000   C539.579346,717.353699 539.980713,711.164001 540.075806,705.001160   C540.124023,701.875549 539.187561,699.957886 536.002136,700.064453   C533.077148,700.162415 531.944031,702.124695 531.976013,705.000244   C532.051025,711.749451 532.000000,718.500000 532.000000,725.250000  "/>

<path fill="none" opacity="1.000000" stroke="#000000" stroke-linecap="round" stroke-linejoin="round" stroke-width="4.000000" d=" M547.500000,151.000000   C547.500000,165.500000 547.504578,180.000000 547.494873,194.500000   C547.493469,196.562012 547.331055,198.639267 548.500000,200.500000  "/>

<path fill="none" opacity="1.000000" stroke="#000000" stroke-linecap="round" stroke-linejoin="round" stroke-width="4.000000" d=" M543.000000,795.500000   C544.918701,796.946411 544.532166,799.042114 544.488708,800.999756   C544.199707,813.998413 545.106018,827.009827 544.056274,840.004517   C543.964844,841.136902 544.666687,842.333313 545.000000,843.500000  "/>
<path fill="none" opacity="1.000000" stroke="#000000" stroke-linecap="round" stroke-linejoin="round" stroke-width="5.000000" d=" M510.000000,742.000000   C508.594147,748.513794 504.462036,753.502197 500.460052,758.467834   C492.074615,768.872498 483.221375,778.825073 471.000000,785.000000  "/>
<path fill="none" opacity="1.000000" stroke="#000000" stroke-linecap="round" stroke-linejoin="round" stroke-width="3.000000" d=" M444.500000,552.000000   C429.166656,552.000000 413.833344,552.000000 398.500000,552.000000  "/>
<path fill="none" opacity="1.000000" stroke="#000000" stroke-linecap="round" stroke-linejoin="round" stroke-width="3.000000" d=" M444.500000,580.000000   C429.166656,580.000000 413.833344,580.000000 398.500000,580.000000  "/>
<path fill="none" opacity="1.000000" stroke="#000000" stroke-linecap="round" stroke-linejoin="round" stroke-width="3.000000" d=" M444.500000,566.000000   C429.166656,566.000000 413.833344,566.000000 398.500000,566.000000  "/>
<path fill="none" opacity="1.000000" stroke="#000000" stroke-linecap="round" stroke-linejoin="round" stroke-width="3.000000" d=" M443.500000,411.000000   C428.166656,411.000000 412.833344,411.000000 397.500000,411.000000  "/>
<path fill="none" opacity="1.000000" stroke="#000000" stroke-linecap="round" stroke-linejoin="round" stroke-width="3.000000" d=" M444.500000,538.000000   C429.166656,538.000000 413.833344,538.000000 398.500000,538.000000  "/>
<path fill="none" opacity="1.000000" stroke="#000000" stroke-linecap="round" stroke-linejoin="round" stroke-width="3.000000" d=" M521.000000,817.000000   C522.454346,819.350525 521.966248,821.967346 521.987549,824.500122   C522.029663,829.499756 521.802368,834.509521 522.042725,839.497925   C522.487854,848.735718 528.124939,853.140686 537.004333,851.523804   C537.972229,851.347473 539.000000,851.500000 540.000000,851.500000  "/>
<path fill="none" opacity="1.000000" stroke="#000000" stroke-linecap="round" stroke-linejoin="round" stroke-width="3.000000" d=" M444.500000,341.000000   C429.166656,341.000000 413.833344,341.000000 398.500000,341.000000  "/>
<path fill="none" opacity="1.000000" stroke="#000000" stroke-linecap="round" stroke-linejoin="round" stroke-width="3.000000" d=" M443.500000,397.000000   C428.166656,397.000000 412.833344,397.000000 397.500000,397.000000  "/>
<path fill="none" opacity="1.000000" stroke="#000000" stroke-linecap="round" stroke-linejoin="round" stroke-width="3.000000" d=" M443.500000,425.000000   C428.166656,425.000000 412.833344,425.000000 397.500000,425.000000  "/>
<path fill="none" opacity="1.000000" stroke="#000000" stroke-linecap="round" stroke-linejoin="round" stroke-width="3.000000" d=" M443.500000,383.000000   C428.333344,383.000000 413.166656,383.000000 398.000000,383.000000  "/>
<path fill="none" opacity="1.000000" stroke="#000000" stroke-linecap="round" stroke-linejoin="round" stroke-width="3.000000" d=" M443.500000,439.000000   C431.833344,439.000000 420.166473,438.962311 408.500122,439.022949   C404.999359,439.041138 401.500000,439.333344 398.000000,439.500000  "/>
<path fill="none" opacity="1.000000" stroke="#000000" stroke-linecap="round" stroke-linejoin="round" stroke-width="4.000000" d=" M398.000000,453.500000   C413.166656,453.500000 428.333344,453.500000 443.500000,453.500000  "/>
<path fill="none" opacity="1.000000" stroke="#000000" stroke-linecap="round" stroke-linejoin="round" stroke-width="3.000000" d=" M398.000000,481.500000   C413.166656,482.302063 428.333344,482.321320 443.500000,481.500000  "/>
<path fill="none" opacity="1.000000" stroke="#000000" stroke-linecap="round" stroke-linejoin="round" stroke-width="5.000000" d=" M572.000000,729.000000   C571.204834,736.239319 566.636841,741.724670 562.893982,747.430481   C556.311157,757.465759 549.002258,766.962036 541.177551,776.151184   C531.963684,786.971741 522.734436,797.659973 512.007446,807.008545   C501.331635,816.312500 490.577576,825.514160 478.480988,832.969116   C476.191803,834.379883 473.731506,835.578796 471.000000,836.000000  "/>
<path fill="none" opacity="1.000000" stroke="#000000" stroke-linecap="round" stroke-linejoin="round" stroke-width="4.000000" d=" M398.000000,467.500000   C413.166656,467.500000 428.333344,467.500000 443.500000,467.500000  "/>
<path fill="none" opacity="1.000000" stroke="#000000" stroke-linecap="round" stroke-linejoin="round" stroke-width="4.000000" d=" M399.000000,326.500000   C414.000000,326.500000 429.000000,326.500000 444.000000,326.500000  "/>
<path fill="none" opacity="1.000000" stroke="#000000" stroke-linecap="round" stroke-linejoin="round" stroke-width="4.000000" d=" M399.000000,594.500000   C414.000000,594.500000 429.000000,594.500000 444.000000,594.500000  "/>
<path fill="none" opacity="1.000000" stroke="#000000" stroke-linecap="round" stroke-linejoin="round" stroke-width="3.000000" d=" M444.500000,298.000000   C432.500000,298.000000 420.499847,297.967468 408.500092,298.022827   C405.499390,298.036652 402.500000,298.333344 399.500000,298.500000  "/>
<path fill="none" opacity="1.000000" stroke="#000000" stroke-linecap="round" stroke-linejoin="round" stroke-width="4.000000" d=" M399.000000,608.500000   C414.000000,608.500000 429.000000,608.500000 444.000000,608.500000  "/>
<path fill="none" opacity="1.000000" stroke="#000000" stroke-linecap="round" stroke-linejoin="round" stroke-width="3.000000" d=" M445.500000,749.000000   C430.500000,749.000000 415.500000,749.000000 400.500000,749.000000  "/>
<path fill="none" opacity="1.000000" stroke="#000000" stroke-linecap="round" stroke-linejoin="round" stroke-width="3.000000" d=" M443.500000,354.500000   C428.510223,355.587189 413.498749,354.721161 398.500000,355.000000  "/>
<path fill="none" opacity="1.000000" stroke="#000000" stroke-linecap="round" stroke-linejoin="round" stroke-width="3.000000" d=" M444.500000,284.000000   C429.500000,284.000000 414.500000,284.000000 399.500000,284.000000  "/>
<path fill="none" opacity="1.000000" stroke="#000000" stroke-linecap="round" stroke-linejoin="round" stroke-width="3.000000" d=" M444.500000,650.000000   C429.500000,650.000000 414.500000,650.000000 399.500000,650.000000  "/>
<path fill="none" opacity="1.000000" stroke="#000000" stroke-linecap="round" stroke-linejoin="round" stroke-width="3.000000" d=" M443.500000,509.500000   C428.510223,510.587189 413.498749,509.721161 398.500000,510.000000  "/>
<path fill="none" opacity="1.000000" stroke="#000000" stroke-linecap="round" stroke-linejoin="round" stroke-width="3.000000" d=" M444.000000,312.500000   C429.000000,311.689606 414.000000,311.689606 399.000000,312.500000  "/>
<path fill="none" opacity="1.000000" stroke="#000000" stroke-linecap="round" stroke-linejoin="round" stroke-width="3.000000" d=" M398.500000,495.500000   C413.500000,496.310883 428.500000,496.310883 443.500000,495.500000  "/>
<path fill="none" opacity="1.000000" stroke="#000000" stroke-linecap="round" stroke-linejoin="round" stroke-width="4.000000" d=" M399.000000,622.500000   C414.000000,622.500000 429.000000,622.500000 444.000000,622.500000  "/>
<path fill="none" opacity="1.000000" stroke="#000000" stroke-linecap="round" stroke-linejoin="round" stroke-width="3.000000" d=" M445.500000,763.000000   C430.500000,763.000000 415.500000,763.000000 400.500000,763.000000  "/>
<path fill="none" opacity="1.000000" stroke="#000000" stroke-linecap="round" stroke-linejoin="round" stroke-width="3.000000" d=" M445.500000,735.000000   C430.500000,735.000000 415.500000,735.000000 400.500000,735.000000  "/>
<path fill="none" opacity="1.000000" stroke="#000000" stroke-linecap="round" stroke-linejoin="round" stroke-width="3.000000" d=" M443.500000,523.500000   C428.510223,524.587158 413.498749,523.721130 398.500000,524.000000  "/>
<path fill="none" opacity="1.000000" stroke="#000000" stroke-linecap="round" stroke-linejoin="round" stroke-width="3.000000" d=" M443.500000,369.000000   C428.500000,369.000000 413.500000,369.000000 398.500000,369.000000  "/>
<path fill="none" opacity="1.000000" stroke="#000000" stroke-linecap="round" stroke-linejoin="round" stroke-width="3.000000" d=" M485.000000,722.000000   C485.000000,716.166687 484.825714,710.325867 485.074554,704.503174   C485.196564,701.648071 484.000214,700.245728 481.495544,700.059998   C478.552216,699.841736 477.073395,701.538635 476.991913,704.499756   C476.858826,709.334045 477.429840,714.192993 476.500000,719.000000  "/>
<path fill="none" opacity="1.000000" stroke="#000000" stroke-linecap="round" stroke-linejoin="round" stroke-width="3.000000" d=" M445.500000,777.000000   C434.166656,777.000000 422.833130,776.961487 411.500122,777.022949   C407.999329,777.041931 404.500000,777.333374 401.000000,777.500000  "/>
<path fill="none" opacity="1.000000" stroke="#000000" stroke-linecap="round" stroke-linejoin="round" stroke-width="5.000000" d=" M575.500000,752.000000   C571.349243,754.369263 569.989807,758.884583 567.541687,762.528015   C561.161621,772.023254 553.954407,780.838379 546.541870,789.535645   C530.936340,807.846130 513.068298,823.637024 493.437683,837.411194   C486.433990,842.325439 479.304688,847.281799 471.000000,850.000000  "/>
<path fill="none" opacity="1.000000" stroke="#000000" stroke-linecap="round" stroke-linejoin="round" stroke-width="4.000000" d=" M400.000000,692.500000   C414.833344,692.500000 429.666656,692.500000 444.500000,692.500000  "/>
<path fill="none" opacity="1.000000" stroke="#000000" stroke-linecap="round" stroke-linejoin="round" stroke-width="3.000000" d=" M444.500000,270.500000   C429.666656,269.662750 414.833344,269.708099 400.000000,270.500000  "/>
<path fill="none" opacity="1.000000" stroke="#000000" stroke-linecap="round" stroke-linejoin="round" stroke-width="4.000000" d=" M400.000000,706.500000   C414.833344,706.500000 429.666656,706.500000 444.500000,706.500000  "/>
<path fill="none" opacity="1.000000" stroke="#000000" stroke-linecap="round" stroke-linejoin="round" stroke-width="3.000000" d=" M401.000000,255.500000   C415.833344,256.333344 430.666656,257.166656 445.500000,258.000000  "/>
<path fill="none" opacity="1.000000" stroke="#000000" stroke-linecap="round" stroke-linejoin="round" stroke-width="4.000000" d=" M400.000000,678.500000   C414.666656,678.500000 429.333344,678.500000 444.000000,678.500000  "/>
<path fill="none" opacity="1.000000" stroke="#000000" stroke-linecap="round" stroke-linejoin="round" stroke-width="3.000000" d=" M445.500000,805.000000   C430.833344,805.000000 416.166656,805.000000 401.500000,805.000000  "/>
<path fill="none" opacity="1.000000" stroke="#000000" stroke-linecap="round" stroke-linejoin="round" stroke-width="4.000000" d=" M400.500000,720.500000   C415.166656,720.500000 429.833344,720.500000 444.500000,720.500000  "/>
<path fill="none" opacity="1.000000" stroke="#000000" stroke-linecap="round" stroke-linejoin="round" stroke-width="4.000000" d=" M400.000000,664.500000   C414.666656,664.500000 429.333344,664.500000 444.000000,664.500000  "/>
<path fill="none" opacity="1.000000" stroke="#000000" stroke-linecap="round" stroke-linejoin="round" stroke-width="3.000000" d=" M401.500000,790.500000   C416.156158,791.592407 430.834656,790.716797 445.500000,791.000000  "/>
<path fill="none" opacity="1.000000" stroke="#000000" stroke-linecap="round" stroke-linejoin="round" stroke-width="3.000000" d=" M445.500000,819.000000   C430.833344,819.000000 416.166656,819.000000 401.500000,819.000000  "/>
<path fill="none" opacity="1.000000" stroke="#000000" stroke-linecap="round" stroke-linejoin="round" stroke-width="3.000000" d=" M402.000000,239.500000   C414.500000,241.833344 426.995270,244.192551 439.504883,246.473175   C441.469971,246.831436 443.500000,246.833344 445.500000,247.000000  "/>
<path fill="none" opacity="1.000000" stroke="#000000" stroke-linecap="round" stroke-linejoin="round" stroke-width="3.000000" d=" M402.500000,846.500000   C416.822571,847.592163 431.167999,846.719666 445.500000,847.000000  "/>
<path fill="none" opacity="1.000000" stroke="#000000" stroke-linecap="round" stroke-linejoin="round" stroke-width="4.000000" d=" M402.000000,833.500000   C416.333344,833.500000 430.666656,833.500000 445.000000,833.500000  "/>
<path fill="none" opacity="1.000000" stroke="#000000" stroke-linecap="round" stroke-linejoin="round" stroke-width="3.000000" d=" M445.500000,861.000000   C431.166656,861.000000 416.833344,861.000000 402.500000,861.000000  "/>
<path fill="none" opacity="1.000000" stroke="#000000" stroke-linecap="round" stroke-linejoin="round" stroke-width="4.000000" d=" M403.000000,888.500000   C417.166656,888.500000 431.333344,888.500000 445.500000,888.500000  "/>
<path fill="none" opacity="1.000000" stroke="#000000" stroke-linecap="round" stroke-linejoin="round" stroke-width="3.000000" d=" M446.000000,234.500000   C437.191345,234.161514 429.415771,229.879379 421.030853,227.871231   C415.154266,226.463791 409.524475,223.997650 403.500000,223.000000  "/>
<path fill="none" opacity="1.000000" stroke="#000000" stroke-linecap="round" stroke-linejoin="round" stroke-width="5.000000" d=" M574.500000,316.000000   C567.031738,312.629730 559.509644,309.431488 551.504700,307.480713   C541.303528,304.994720 530.961121,304.642914 520.504333,304.346375   C504.838196,303.902100 490.317932,308.051880 476.057739,313.647186   C474.439789,314.282043 473.015656,314.237061 471.500000,314.500000  "/>
<path fill="none" opacity="1.000000" stroke="#000000" stroke-linecap="round" stroke-linejoin="round" stroke-width="4.000000" d=" M403.000000,874.500000   C417.166656,874.500000 431.333344,874.500000 445.500000,874.500000  "/>
<path fill="none" opacity="1.000000" stroke="#000000" stroke-linecap="round" stroke-linejoin="round" stroke-width="4.000000" d=" M403.500000,902.500000   C417.500000,902.500000 431.500000,902.500000 445.500000,902.500000  "/>
<path fill="none" opacity="1.000000" stroke="#000000" stroke-linecap="round" stroke-linejoin="round" stroke-width="4.000000" d=" M404.000000,916.500000   C418.000000,916.500000 432.000000,916.500000 446.000000,916.500000  "/>
<path fill="none" opacity="1.000000" stroke="#000000" stroke-linecap="round" stroke-linejoin="round" stroke-width="3.000000" d=" M448.000000,222.000000   C441.710999,220.867004 435.908844,218.307968 429.975983,216.063522   C422.240845,213.137253 414.333344,210.666656 406.500000,208.000000  "/>

<path fill="none" opacity="1.000000" stroke="#000000" stroke-linecap="round" stroke-linejoin="round" stroke-width="3.000000" d=" M450.500000,210.000000   C441.349182,207.098175 432.800598,202.746674 423.985718,199.033875   C419.567535,197.172958 415.000000,195.666672 410.500000,194.000000  "/>
<path fill="none" opacity="1.000000" stroke="#000000" stroke-linecap="round" stroke-linejoin="round" stroke-width="3.000000" d=" M454.500000,198.000000   C442.500000,192.500000 430.468170,187.066635 418.558197,181.378128   C417.565826,180.904129 416.279846,180.940292 415.500000,180.000000  "/>


<path fill="none" opacity="1.000000" stroke="#000000" stroke-linecap="round" stroke-linejoin="round" stroke-width="6.000000" d=" M575.500000,728.000000   C579.293274,733.121033 577.474060,739.032593 577.274292,744.491760   C577.120300,748.699829 576.814453,752.723633 577.273560,757.024170   C578.082825,764.604492 577.684204,772.339539 577.425293,779.997498   C577.287842,784.063293 575.096985,787.577576 572.663025,790.975891   C570.863831,790.807190 570.290405,789.062683 570.061279,787.491089   C569.563660,784.077026 567.321960,782.657104 564.567078,783.680481   C562.562256,784.425293 560.803589,786.619324 562.471558,789.516357   C564.180115,792.483887 566.336121,792.933716 568.967651,790.956909   C569.683838,790.418945 570.316833,790.600708 571.000000,790.500000  "/>
<path fill="none" opacity="1.000000" stroke="#000000" stroke-linecap="round" stroke-linejoin="round" stroke-width="3.000000" d=" M464.500000,173.000000   C453.500000,167.833328 442.452911,162.762390 431.549927,157.398544   C429.882568,156.578262 428.093811,155.979065 426.500000,155.000000  "/>
<path fill="none" opacity="1.000000" stroke="#000000" stroke-linecap="round" stroke-linejoin="round" stroke-width="3.000000" d=" M521.000000,319.000000   C521.316833,331.331299 520.695496,343.662506 521.321716,356.009033   C521.554321,360.594635 521.072327,365.331970 521.019409,370.000214   C520.943359,376.716858 525.205139,380.855469 531.999512,381.019165   C538.316956,381.171356 544.004944,379.763611 548.500000,375.000000  "/>
<path fill="none" opacity="1.000000" stroke="#000000" stroke-linecap="round" stroke-linejoin="round" stroke-width="3.000000" d=" M492.500000,323.000000   C493.545044,331.148743 492.865631,339.333496 492.971313,347.500366   C493.094269,356.998779 493.000000,366.500000 493.000000,376.000000  "/>
<path fill="none" opacity="1.000000" stroke="#000000" stroke-linecap="round" stroke-linejoin="round" stroke-width="3.000000" d=" M420.500000,167.500000   C433.000000,173.333328 445.500000,179.166672 458.000000,185.000000  "/>
<path fill="none" opacity="1.000000" stroke="#000000" stroke-linecap="round" stroke-linejoin="round" stroke-width="3.000000" d=" M399.500000,636.500000   C414.489899,637.575012 429.501099,636.733521 444.500000,637.000000  "/>
<path fill="none" opacity="1.000000" stroke="#000000" stroke-linecap="round" stroke-linejoin="round" stroke-width="4.000000" d=" M494.000000,839.500000   C496.305237,841.551636 494.835480,844.453369 494.729553,846.485901   C494.216309,856.334473 494.800110,866.168945 494.500000,876.000000  "/>
<path fill="none" opacity="1.000000" stroke="#000000" stroke-linecap="round" stroke-linejoin="round" stroke-width="3.000000" d=" M470.500000,649.500000   C476.798096,649.716187 478.883606,644.876343 481.549408,640.530273   C483.583527,637.214111 484.740356,633.392090 487.490356,630.490845   C491.750275,625.996765 495.447418,625.479370 499.938629,629.567383   C503.412750,632.729614 506.430786,636.417664 509.475037,640.021118   C513.184143,644.411499 517.486084,647.065674 523.503052,646.017456   C528.348389,645.173340 530.794617,641.369995 533.447144,637.958923   C535.706787,635.053101 537.547485,631.827209 540.498047,629.497559   C545.122314,625.846497 548.526184,625.433228 553.494995,631.004517   C556.123840,633.952148 557.922363,637.440857 559.451721,641.020630   C560.784668,644.140625 563.186829,646.275146 565.521606,648.477112   C569.272217,652.014343 572.846558,648.457764 576.500000,648.000000  "/>
<path fill="none" opacity="1.000000" stroke="#000000" stroke-linecap="round" stroke-linejoin="round" stroke-width="4.000000" d=" M501.000000,263.500000   C505.271210,269.671631 505.443848,277.242157 507.994598,284.002045   C509.819611,288.838593 509.834381,294.361664 513.500000,298.500000  "/>
<path fill="none" opacity="1.000000" stroke="#000000" stroke-linecap="round" stroke-linejoin="round" stroke-width="3.000000" d=" M544.000000,20.000000   C549.288818,24.422380 555.968994,26.063501 562.006470,28.986662   C567.642944,31.715681 573.333313,34.333332 579.000000,37.000000  "/>
<path fill="none" opacity="1.000000" stroke="#000000" stroke-linecap="round" stroke-linejoin="round" stroke-width="3.000000" d=" M549.500000,322.000000   C548.416138,332.819214 549.238586,343.667603 549.015991,354.500336   C548.920105,359.165009 549.000000,363.833344 549.000000,368.500000   C549.000000,375.507538 550.712402,377.498047 557.999573,379.002075   C562.843323,380.001770 567.462158,380.145996 571.553772,376.561371   C572.542725,375.695007 573.843018,374.636902 575.500000,375.000000  "/>
<path fill="none" opacity="1.000000" stroke="#000000" stroke-linecap="round" stroke-linejoin="round" stroke-width="3.000000" d=" M441.000000,131.000000   C450.666656,136.500000 460.335419,141.996368 469.998322,147.502945   C472.009918,148.649277 474.000000,149.833328 476.000000,151.000000  "/>
<path fill="none" opacity="1.000000" stroke="#000000" stroke-linecap="round" stroke-linejoin="round" stroke-width="5.000000" d=" M574.000000,241.000000   C567.154846,241.471680 561.635742,245.264267 556.036255,248.561569   C537.836670,259.278534 525.326599,275.078918 516.535767,294.016602   C515.226807,296.836517 513.004944,299.492096 514.000000,303.000000  "/>
<path fill="none" opacity="1.000000" stroke="#000000" stroke-linecap="round" stroke-linejoin="round" stroke-width="3.000000" d=" M446.000000,930.500000   C436.347900,931.510864 426.666016,930.792419 416.999756,930.988342   C414.939423,931.030151 412.860748,930.831055 411.000000,932.000000  "/>

<path fill="none" opacity="1.000000" stroke="#000000" stroke-linecap="round" stroke-linejoin="round" stroke-width="3.000000" d=" M532.500000,30.000000   C541.317139,35.699100 551.233276,39.201790 560.486328,44.026237   C562.864319,45.266109 565.604797,45.899956 567.500000,48.000000  "/>
<path fill="none" opacity="1.000000" stroke="#000000" stroke-linecap="round" stroke-linejoin="round" stroke-width="3.000000" d=" M434.000000,143.000000   C445.666656,149.333328 457.333344,155.666672 469.000000,162.000000  "/>


<path fill="none" opacity="1.000000" stroke="#000000" stroke-linecap="round" stroke-linejoin="round" stroke-width="3.000000" d=" M548.000000,150.500000   C554.212219,147.434525 555.520081,144.528168 552.499939,140.500015   C550.482300,137.808792 546.492126,137.104630 544.000000,139.000000   C541.072021,141.226837 540.601196,145.284454 543.009399,147.991638   C544.200867,149.330963 545.474304,150.612930 547.500000,150.500000  "/>
<path fill="none" opacity="1.000000" stroke="#000000" stroke-linecap="round" stroke-linejoin="round" stroke-width="3.000000" d=" M522.000000,38.500000   C528.153748,43.544823 535.785645,45.949612 542.515869,49.973488   C546.931946,52.613815 551.500000,54.999985 556.000000,57.499985  "/>
<path fill="none" opacity="1.000000" stroke="#000000" stroke-linecap="round" stroke-linejoin="round" stroke-width="4.000000" d=" M568.500000,713.500000   C566.898804,710.815796 567.520569,707.849365 567.545532,705.000427   C567.571106,702.080505 566.589233,700.057556 563.500000,700.057556   C560.410767,700.057556 559.267395,702.082031 559.500366,705.000000   C559.833130,709.166687 558.647278,713.454895 560.500000,717.500000  "/>




<path fill="none" opacity="1.000000" stroke="#000000" stroke-linecap="round" stroke-linejoin="round" stroke-width="3.000000" d=" M513.000000,48.000004   C522.666687,53.500004 532.341187,58.986282 541.990295,64.516968   C543.227966,65.226395 544.333313,66.166679 545.500000,67.000008  "/>

<path fill="none" opacity="1.000000" stroke="#000000" stroke-linecap="round" stroke-linejoin="round" stroke-width="4.000000" d=" M575.500000,546.500000   C563.389954,547.042175 552.658386,550.108093 542.743347,558.184937   C534.707031,564.731384 528.362732,571.824829 523.960876,580.981201   C523.414001,582.118896 522.333374,583.000000 521.500000,584.000000  "/>
<path fill="none" opacity="1.000000" stroke="#000000" stroke-linecap="round" stroke-linejoin="round" stroke-width="5.000000" d=" M538.500000,777.500000   C532.500000,776.740601 526.516113,776.880127 520.494934,777.445862   C515.674622,777.898804 510.771667,778.954651 506.000000,777.000000  "/>
<path fill="none" opacity="1.000000" stroke="#000000" stroke-linecap="round" stroke-linejoin="round" stroke-width="3.000000" d=" M457.500000,108.000000   C467.824158,116.085503 479.066498,122.814659 490.000000,130.000000  "/>
<path fill="none" opacity="1.000000" stroke="#000000" stroke-linecap="round" stroke-linejoin="round" stroke-width="3.000000" d=" M498.000000,119.000000   C486.916473,112.387184 476.087677,105.380188 465.500000,98.000000  "/>
<path fill="none" opacity="1.000000" stroke="#000000" stroke-linecap="round" stroke-linejoin="round" stroke-width="3.000000" d=" M473.000000,86.999992   C483.833344,93.999992 494.666656,100.999992 505.500000,107.999992  "/>
<path fill="none" opacity="1.000000" stroke="#000000" stroke-linecap="round" stroke-linejoin="round" stroke-width="4.000000" d=" M521.500000,463.000000   C526.720703,469.960114 530.247986,478.082062 536.948059,484.058197   C548.002380,493.918121 560.184387,500.639679 575.500000,500.000000  "/>
<path fill="none" opacity="1.000000" stroke="#000000" stroke-linecap="round" stroke-linejoin="round" stroke-width="3.000000" d=" M515.500000,97.000008   C504.833313,90.000008 494.166656,83.000008 483.500000,76.000008  "/>
<path fill="none" opacity="1.000000" stroke="#000000" stroke-linecap="round" stroke-linejoin="round" stroke-width="3.000000" d=" M493.500000,66.000000   C502.103210,72.860809 512.008606,77.728210 521.065735,83.903564   C522.548157,84.914299 524.201111,85.698303 525.500000,87.000000  "/>

<path fill="none" opacity="1.000000" stroke="#000000" stroke-linecap="round" stroke-linejoin="round" stroke-width="3.000000" d=" M450.000000,119.999992   C460.666656,126.333328 471.333344,132.666656 482.000000,139.000000  "/>
<path fill="none" opacity="1.000000" stroke="#000000" stroke-linecap="round" stroke-linejoin="round" stroke-width="5.000000" d=" M540.000000,227.500000   C541.668213,229.999802 541.441284,232.972672 540.866272,235.469208   C539.529358,241.274612 540.679443,247.259125 539.077332,253.021500   C538.518921,255.029861 538.844543,257.288879 540.500000,259.000000  "/>
<path fill="none" opacity="1.000000" stroke="#000000" stroke-linecap="round" stroke-linejoin="round" stroke-width="5.000000" d=" M504.500000,258.000000   C506.093048,259.887482 508.208893,259.915558 510.495575,260.067017   C517.840820,260.553528 525.166321,261.337128 532.500305,261.996490   C533.837891,262.116791 535.006897,262.595093 536.000000,263.500000  "/>

<path fill="none" opacity="1.000000" stroke="#000000" stroke-linecap="round" stroke-linejoin="round" stroke-width="6.000000" d=" M514.000000,532.000000   C513.601624,534.580383 511.563904,536.272156 510.475311,538.487854   C507.926666,543.675537 508.642090,548.104004 513.000000,553.000000   C517.018555,557.514771 521.851013,558.681213 527.500000,556.500000   C533.114563,554.332092 535.511841,550.507874 536.110901,545.012085   C536.719543,539.428772 533.197693,535.769226 530.867432,531.573669   C530.301392,530.554626 528.139771,530.457581 526.499939,530.460327   C513.130981,530.482666 499.756592,530.951172 486.526306,532.699219   C481.364288,533.381165 476.229248,535.110474 471.000000,536.000000  "/>
<path fill="none" opacity="1.000000" stroke="#000000" stroke-linecap="round" stroke-linejoin="round" stroke-width="3.000000" d=" M503.000000,56.999989   C512.166687,62.666656 521.343384,68.317169 530.489441,74.016983   C531.898621,74.895210 533.166687,76.000008 534.500000,77.000008  "/>


<path fill="none" opacity="1.000000" stroke="#000000" stroke-linecap="round" stroke-linejoin="round" stroke-width="4.000000" d=" M470.500000,678.500000   C472.068268,678.473816 473.506775,678.404602 475.039917,677.573669   C478.919525,675.471069 483.045929,676.170044 486.989380,677.530823   C493.057281,679.624573 493.566498,680.631409 493.520569,687.000122   C493.444824,697.499573 493.524750,708.000122 493.477478,718.499878   C493.468842,720.417297 493.166656,722.333313 493.000000,724.250000  "/>
<path fill="none" opacity="1.000000" stroke="#000000" stroke-linecap="round" stroke-linejoin="round" stroke-width="4.000000" d=" M530.000000,743.500000   C533.812073,748.722168 534.045593,755.271484 536.487366,761.005371   C538.330750,765.334229 538.717163,770.279907 542.000000,774.000000  "/>
<path fill="none" opacity="1.000000" stroke="#000000" stroke-linecap="round" stroke-linejoin="round" stroke-width="3.000000" d=" M494.000000,876.500000   C489.199280,880.090515 488.164642,882.543335 490.537506,885.469604   C492.421906,887.793579 494.536957,889.368164 497.545959,886.549011   C500.091309,884.164185 500.898376,881.326599 498.988708,879.009338   C497.835968,877.610474 496.196594,876.979492 494.500000,876.500000  "/>
<path fill="none" opacity="1.000000" stroke="#000000" stroke-linecap="round" stroke-linejoin="round" stroke-width="4.000000" d=" M473.500000,804.000000   C480.734955,807.751831 488.928192,808.338318 496.532013,810.905151   C498.759033,811.656982 501.050690,812.101562 503.000000,813.500000  "/>
<path fill="none" opacity="1.000000" stroke="#000000" stroke-linecap="round" stroke-linejoin="round" stroke-width="4.000000" d=" M470.500000,546.000000   C479.361511,546.538696 487.689514,549.406799 494.871460,554.192871   C501.689117,558.736328 509.074066,563.022705 513.516785,570.489990   C516.548218,575.585266 520.076233,580.427795 521.000000,586.500000  "/>
<path fill="none" opacity="1.000000" stroke="#000000" stroke-linecap="round" stroke-linejoin="round" stroke-width="5.000000" d=" M502.000000,781.500000   C504.154205,782.792419 504.051514,784.851257 504.025848,787.000305   C503.931641,794.892029 504.035065,802.777161 506.000000,810.500000  "/>


<path fill="none" opacity="1.000000" stroke="#000000" stroke-linecap="round" stroke-linejoin="round" stroke-width="4.000000" d=" M521.000000,460.000000   C520.355469,466.896484 516.593079,472.482971 512.389526,477.405640   C502.269745,489.256500 489.961273,497.843750 474.003082,500.022461   C472.813049,500.184906 471.666656,500.666626 470.500000,500.999939  "/>

<path fill="none" opacity="1.000000" stroke="#000000" stroke-linecap="round" stroke-linejoin="round" stroke-width="3.000000" d=" M473.000000,232.000000   C482.698059,232.000000 485.088348,234.382004 485.494446,244.500229   C485.598236,247.085342 485.010681,249.797867 487.000000,252.000000  "/>
<path fill="none" opacity="1.000000" stroke="#000000" stroke-linecap="round" stroke-linejoin="round" stroke-width="3.000000" d=" M511.000000,202.500000   C513.423828,201.841293 515.601013,200.739197 515.947937,197.993423   C516.247803,195.619614 515.450867,193.566513 513.003723,192.491486   C510.229279,191.272659 508.033051,192.356766 506.573364,194.548843   C505.461273,196.218948 505.269226,198.397537 507.032135,199.963821   C508.089020,200.902802 508.602386,202.689987 510.500000,202.500000  "/>
<path fill="none" opacity="1.000000" stroke="#000000" stroke-linecap="round" stroke-linejoin="round" stroke-width="4.000000" d=" M544.500000,225.000000   C550.190979,230.002487 557.518433,231.966187 563.992920,235.512909   C566.516235,236.895203 569.621094,237.497116 571.000000,240.500000  "/>
<path fill="none" opacity="1.000000" stroke="#000000" stroke-linecap="round" stroke-linejoin="round" stroke-width="3.000000" d=" M555.000000,782.500000   C556.835754,784.978882 555.883728,787.826477 555.959839,790.501160   C556.171021,797.925354 559.638733,802.981018 566.500000,805.750000  "/>
<path fill="none" opacity="1.000000" stroke="#000000" stroke-linecap="round" stroke-linejoin="round" stroke-width="3.000000" d=" M446.000000,944.500000   C439.000000,945.091858 431.992554,945.516663 425.004730,944.468506   C423.005737,944.168701 421.625488,945.362671 420.000000,946.000000  "/>
<path fill="none" opacity="1.000000" stroke="#000000" stroke-linecap="round" stroke-linejoin="round" stroke-width="3.000000" d=" M532.000000,807.500000   C533.992432,810.315674 532.840332,813.499878 532.945312,816.501892   C533.137451,821.995178 533.000000,827.500000 533.000000,833.000000  "/>
<path fill="none" opacity="1.000000" stroke="#000000" stroke-linecap="round" stroke-linejoin="round" stroke-width="3.000000" d=" M550.000000,682.500000   C550.000000,693.166687 549.972778,703.833435 550.022644,714.499878   C550.032776,716.667297 550.333374,718.833313 550.500000,721.000000  "/>
<path fill="none" opacity="1.000000" stroke="#000000" stroke-linecap="round" stroke-linejoin="round" stroke-width="3.000000" d=" M523.500000,548.500000   C526.167236,547.333618 527.876770,545.729797 526.517456,542.492676   C525.743713,540.650146 524.395752,540.030396 522.500793,539.973450   C520.278992,539.906738 519.079346,541.394897 518.607178,543.030945   C518.130554,544.682373 518.221069,546.706970 520.497925,547.505920   C521.343994,547.802856 522.166687,548.166687 523.000000,548.500000  "/>



<path fill="none" opacity="1.000000" stroke="#000000" stroke-linecap="round" stroke-linejoin="round" stroke-width="3.000000" d=" M546.500000,604.000000   C545.476868,611.313843 546.230225,618.668091 546.000000,626.000000  "/>
<path fill="none" opacity="1.000000" stroke="#000000" stroke-linecap="round" stroke-linejoin="round" stroke-width="3.000000" d=" M470.500000,247.000000   C472.035645,246.960480 473.354980,247.349289 474.519043,248.480408   C476.882812,250.777328 478.632477,249.435822 480.545319,247.545853   C482.476044,245.638168 482.635071,243.530563 481.430756,241.541931   C479.875549,238.973846 477.165283,238.113556 474.570557,239.621429   C473.232666,240.398926 472.085571,241.570251 470.500000,242.000000  "/>
<path fill="none" opacity="1.000000" stroke="#000000" stroke-linecap="round" stroke-linejoin="round" stroke-width="6.000000" d=" M471.000000,732.000000   C475.867828,732.874146 480.257629,735.237000 484.923126,736.738770   C491.708466,738.922913 498.696930,739.019775 505.495636,740.519714   C511.017059,741.737854 516.490601,739.948120 522.004883,740.445862   C524.055176,740.630859 526.110596,740.503174 528.000000,741.500000  "/>
<path fill="none" opacity="1.000000" stroke="#000000" stroke-linecap="round" stroke-linejoin="round" stroke-width="3.000000" d=" M510.500000,203.000000   C511.601715,207.968826 510.696411,213.004898 511.006134,217.999619   C511.122009,219.867966 510.452179,221.887482 512.000000,223.500000  "/>

<path fill="none" opacity="1.000000" stroke="#000000" stroke-linecap="round" stroke-linejoin="round" stroke-width="4.000000" d=" M493.000000,606.000000   C494.085358,612.643677 493.233032,619.335815 493.500000,626.000000  "/>
<path fill="none" opacity="1.000000" stroke="#000000" stroke-linecap="round" stroke-linejoin="round" stroke-width="4.000000" d=" M493.500000,428.000000   C493.500000,434.500000 493.500000,441.000000 493.500000,447.500000  "/>
<path fill="none" opacity="1.000000" stroke="#000000" stroke-linecap="round" stroke-linejoin="round" stroke-width="3.000000" d=" M546.500000,428.000000   C545.361206,434.391418 546.311707,440.837097 546.000000,447.250000  "/>


<path fill="none" opacity="1.000000" stroke="#000000" stroke-linecap="round" stroke-linejoin="round" stroke-width="3.000000" d=" M493.500000,681.000000   C501.152893,673.831726 513.785339,675.707336 519.528687,679.456055   C521.302490,680.613953 522.048706,681.879028 522.037720,684.000183   C521.964783,698.083130 522.000000,712.166687 522.000000,726.250000  "/>
<path fill="none" opacity="1.000000" stroke="#000000" stroke-linecap="round" stroke-linejoin="round" stroke-width="3.000000" d=" M446.000000,958.500000   C440.410095,959.870117 434.516052,957.793030 429.000000,960.000000  "/>
<path fill="none" opacity="1.000000" stroke="#000000" stroke-linecap="round" stroke-linejoin="round" stroke-width="3.000000" d=" M535.500000,363.000000   C534.371216,368.638367 535.293945,374.337067 535.000000,380.000000  "/>
<path fill="none" opacity="1.000000" stroke="#000000" stroke-linecap="round" stroke-linejoin="round" stroke-width="3.000000" d=" M533.500000,833.500000   C536.590088,834.109314 537.564941,836.313660 536.895996,838.973877   C536.487671,840.597961 535.120422,842.043701 533.000000,842.001465   C530.680542,841.955322 529.493286,840.451355 529.046143,838.489502   C528.418823,835.736633 529.754150,834.061218 532.500000,833.500000  "/>
<path fill="none" opacity="1.000000" stroke="#000000" stroke-linecap="round" stroke-linejoin="round" stroke-width="3.000000" d=" M562.000000,363.500000   C562.000000,368.666656 562.000000,373.833344 562.000000,379.000000  "/>
<path fill="none" opacity="1.000000" stroke="#000000" stroke-linecap="round" stroke-linejoin="round" stroke-width="6.000000" d=" M531.500000,513.500000   C534.722412,515.624084 538.530945,515.203857 542.006226,515.368896   C553.129822,515.897034 564.062134,517.653992 575.000000,519.500000  "/>
<path fill="none" opacity="1.000000" stroke="#000000" stroke-linecap="round" stroke-linejoin="round" stroke-width="3.000000" d=" M507.000000,366.000000   C507.000000,371.000000 507.000000,376.000000 507.000000,381.000000  "/>
<path fill="none" opacity="1.000000" stroke="#000000" stroke-linecap="round" stroke-linejoin="round" stroke-width="6.000000" d=" M531.500000,531.500000   C532.658508,530.467468 534.077454,530.365479 535.498718,530.512207   C548.703308,531.875488 562.007751,532.455444 575.000000,535.500000  "/>
<path fill="none" opacity="1.000000" stroke="#000000" stroke-linecap="round" stroke-linejoin="round" stroke-width="3.000000" d=" M546.500000,516.500000   C545.702332,521.395264 546.082275,526.330444 546.000000,531.250000  "/>
<path fill="none" opacity="1.000000" stroke="#000000" stroke-linecap="round" stroke-linejoin="round" stroke-width="3.000000" d=" M521.500000,696.000000   C518.793579,695.543762 517.384338,692.963745 514.996338,692.009155   C509.567780,689.839172 504.123077,688.659485 498.480255,691.460205   C496.943878,692.222717 495.166656,692.500000 493.500000,693.000000  "/>
<path fill="none" opacity="1.000000" stroke="#000000" stroke-linecap="round" stroke-linejoin="round" stroke-width="3.000000" d=" M521.500000,376.500000   C514.999146,380.453705 508.028748,384.034821 500.595642,380.309174   C495.108795,377.559052 490.843475,376.310944 485.353485,380.298279   C482.652069,382.260315 478.441406,381.852264 474.988373,380.021942   C473.594208,379.282959 472.283386,378.149872 470.500000,378.500000  "/>
<path fill="none" opacity="1.000000" stroke="#000000" stroke-linecap="round" stroke-linejoin="round" stroke-width="4.000000" d=" M481.500000,366.500000   C481.500000,371.166656 481.500000,375.833344 481.500000,380.500000  "/>
<path fill="none" opacity="1.000000" stroke="#000000" stroke-linecap="round" stroke-linejoin="round" stroke-width="3.000000" d=" M536.000000,677.500000   C536.000000,682.166687 536.000000,686.833313 536.000000,691.500000  "/>
<path fill="none" opacity="1.000000" stroke="#000000" stroke-linecap="round" stroke-linejoin="round" stroke-width="3.000000" d=" M576.500000,681.500000   C576.000000,681.500000 575.421021,681.667969 575.011536,681.475464   C563.799805,676.205750 560.480591,676.266052 550.073181,681.959961   C541.000854,675.261658 531.679626,674.535522 522.000000,680.500000  "/>
<path fill="none" opacity="1.000000" stroke="#000000" stroke-linecap="round" stroke-linejoin="round" stroke-width="4.000000" d=" M499.500000,516.500000   C499.500000,521.166687 499.500000,525.833313 499.500000,530.500000  "/>
<path fill="none" opacity="1.000000" stroke="#000000" stroke-linecap="round" stroke-linejoin="round" stroke-width="4.000000" d=" M485.000000,518.000000   C485.333313,522.666687 485.666656,527.333313 486.000000,532.000000  "/>
<path fill="none" opacity="1.000000" stroke="#000000" stroke-linecap="round" stroke-linejoin="round" stroke-width="3.000000" d=" M560.499939,518.000000   C560.166626,522.666687 559.833313,527.333313 559.499939,532.000000  "/>
<path fill="none" opacity="1.000000" stroke="#000000" stroke-linecap="round" stroke-linejoin="round" stroke-width="3.000000" d=" M565.000000,769.500000   C567.098389,773.869263 565.485291,778.513428 566.000000,783.000000  "/>
<path fill="none" opacity="1.000000" stroke="#000000" stroke-linecap="round" stroke-linejoin="round" stroke-width="3.000000" d=" M549.500000,696.000000   C540.241394,691.109741 531.066956,690.847961 522.000000,696.500000  "/>
<path fill="none" opacity="1.000000" stroke="#000000" stroke-linecap="round" stroke-linejoin="round" stroke-width="3.000000" d=" M522.000000,357.000000   C530.859924,364.731018 539.896118,362.942749 549.000000,357.500000  "/>
<path fill="none" opacity="1.000000" stroke="#000000" stroke-linecap="round" stroke-linejoin="round" stroke-width="3.000000" d=" M520.000000,358.000000   C517.125610,359.531158 515.240479,362.323547 512.034241,363.586853   C505.401978,366.200134 499.560486,364.997925 494.000000,361.000000  "/>
<path fill="none" opacity="1.000000" stroke="#000000" stroke-linecap="round" stroke-linejoin="round" stroke-width="3.000000" d=" M550.500000,696.000000   C552.666687,695.000000 554.767090,693.806458 557.013000,693.037964   C562.685242,691.097107 568.264893,691.621704 573.451660,694.584656   C574.501953,695.184692 575.366577,695.566895 576.500000,695.500000  "/>
<path fill="none" opacity="1.000000" stroke="#000000" stroke-linecap="round" stroke-linejoin="round" stroke-width="3.000000" d=" M477.000000,250.500000   C477.462830,254.823380 475.943542,259.299225 478.000000,263.500000  "/>
<path fill="none" opacity="1.000000" stroke="#000000" stroke-linecap="round" stroke-linejoin="round" stroke-width="3.000000" d=" M563.000000,678.500000   C563.000000,682.666687 563.000000,686.833313 563.000000,691.000000  "/>
<path fill="none" opacity="1.000000" stroke="#000000" stroke-linecap="round" stroke-linejoin="round" stroke-width="3.000000" d=" M575.000000,358.500000   C571.622437,358.344910 569.738403,361.479584 566.528992,362.140808   C559.870850,363.512573 554.862671,360.769867 550.000000,357.000000  "/>
<path fill="none" opacity="1.000000" stroke="#000000" stroke-linecap="round" stroke-linejoin="round" stroke-width="3.000000" d=" M523.000000,497.000000   C526.136536,496.530121 526.859253,498.759369 526.906494,501.001953   C526.943298,502.753021 526.496582,504.554718 524.015808,505.075195   C521.326782,505.639313 519.348450,504.272705 518.663452,502.438934   C517.724915,499.926331 518.909912,497.609314 522.000000,497.000000  "/>
<path fill="none" opacity="1.000000" stroke="#000000" stroke-linecap="round" stroke-linejoin="round" stroke-width="4.000000" d=" M507.500000,677.000000   C507.500000,681.000000 507.500000,685.000000 507.500000,689.000000  "/>


<path fill="none" opacity="1.000000" stroke="#000000" stroke-linecap="round" stroke-linejoin="round" stroke-width="3.000000" d=" M492.500000,692.500000   C486.137695,689.481812 479.723480,687.807739 472.974854,691.453430   C472.329773,691.801941 471.333344,691.500000 470.500000,691.500000  "/>
<path fill="none" opacity="1.000000" stroke="#000000" stroke-linecap="round" stroke-linejoin="round" stroke-width="4.000000" d=" M481.500000,677.500000   C481.500000,681.166687 481.500000,684.833313 481.500000,688.500000  "/>
<path fill="none" opacity="1.000000" stroke="#000000" stroke-linecap="round" stroke-linejoin="round" stroke-width="3.000000" d=" M492.000000,362.000000   C484.945709,366.998627 477.754242,366.099182 470.500000,362.500000  "/>
<path fill="none" opacity="1.000000" stroke="#000000" stroke-linecap="round" stroke-linejoin="round" stroke-width="6.000000" d=" M574.500000,330.000000   C567.511353,327.303589 560.798340,323.846863 553.494568,322.021759   C537.504883,318.026154 521.303894,317.390045 505.003448,319.526428   C493.095245,321.087189 481.871124,325.003326 471.000000,330.000000  "/>

<path fill="none" opacity="1.000000" stroke="#000000" stroke-linecap="round" stroke-linejoin="round" stroke-width="6.000000" d=" M576.000000,710.000000   C569.265686,713.197998 563.124023,717.517883 556.016663,720.046753   C542.073181,725.008118 527.746521,726.755310 512.999023,726.581604   C498.389343,726.409485 484.547333,723.070068 471.000000,718.000000  "/>

<path fill="none" opacity="1.000000" stroke="#000000" stroke-linecap="round" stroke-linejoin="round" stroke-width="3.000000" d=" M519.000000,418.500000   C513.499512,422.534760 512.543335,425.698792 516.033569,428.964111   C517.638794,430.465912 519.598633,431.421936 522.007446,430.519836   C524.624451,429.539734 526.163940,427.632080 526.435242,424.993347   C526.672424,422.686279 525.883606,420.627930 523.513000,419.473297   C522.218445,418.842865 520.943970,418.390869 519.500000,418.500000  "/>
<path fill="none" opacity="1.000000" stroke="#000000" stroke-linecap="round" stroke-linejoin="round" stroke-width="3.000000" d=" M518.500000,624.000000   C513.575378,627.901184 512.821289,630.357910 515.490417,633.508118   C517.555359,635.945190 520.040222,636.724854 522.992126,635.481323   C525.835022,634.283752 526.977295,631.853638 526.429199,629.013672   C525.789246,625.697693 523.843567,623.490479 519.999268,623.994324   C519.671570,624.037292 519.333313,624.000000 519.000000,624.000000  "/>
<path fill="none" opacity="1.000000" stroke="#000000" stroke-linecap="round" stroke-linejoin="round" stroke-width="3.000000" d=" M556.500000,282.000000   C552.234070,283.968781 549.724976,287.066315 549.993896,292.000336   C550.201172,295.804230 552.408264,298.249451 555.511963,299.978516   C559.160339,302.011047 562.450439,300.783264 565.494385,298.492584   C568.681396,296.094238 569.946838,292.417053 568.790771,289.072327   C567.646545,285.761780 565.434570,282.293152 560.999207,282.012939   C559.671143,281.929077 558.333313,282.000000 557.000000,282.000000  "/>
<!-- Code injected by live-server -->

</svg>